<svg width="89" height="82" viewBox="0 0 89 82" fill="none" xmlns="http://www.w3.org/2000/svg">
<path d="M63.3754 15.58C60.7796 12.0608 57.8129 8.78085 54.4754 5.84251C53.1775 4.68085 50.9896 5.77418 51.3604 7.41418C52.065 10.6258 52.8066 14.8625 52.8066 18.655C52.8066 25.6933 47.8004 31.3992 40.1612 31.3992C34.4504 31.3992 29.7779 28.2217 27.7383 23.6775C27.3675 22.9942 27.2191 22.5842 26.9966 21.8325C26.5887 20.3975 24.5491 19.9533 23.6591 21.2175C22.9916 22.14 22.3612 23.0625 21.7679 24.0533C17.355 31.0233 14.8333 39.155 14.8333 47.8333C14.8333 62.935 28.1091 75.1667 44.5 75.1667C60.8908 75.1667 74.1666 62.935 74.1666 47.8333C74.1666 35.9092 70.1616 24.8392 63.3754 15.58ZM43.4246 64.9167C36.8237 64.9167 31.4837 60.1333 31.4837 54.1883C31.4837 48.6533 35.3775 44.7583 41.9041 43.5283C47.3554 42.5033 52.955 40.3508 56.8487 36.9683C57.8871 36.08 59.5929 36.49 59.8896 37.7542C60.7425 41.2392 61.1875 44.8608 61.1875 48.5167C61.2246 57.5708 53.2516 64.9167 43.4246 64.9167Z" fill="#F7A4B3"/>
</svg>
